<svg id="visual" viewBox="0 0 960 540" width="960" height="540" xmlns="http://www.w3.org/2000/svg" xmlns:xlink="http://www.w3.org/1999/xlink" version="1.1"><path d="M0 39L14.5 44.3C29 49.7 58 60.3 87.2 66.7C116.3 73 145.7 75 174.8 78.7C204 82.3 233 87.7 262 82.2C291 76.7 320 60.3 349 56.7C378 53 407 62 436.2 66.5C465.3 71 494.7 71 523.8 65.7C553 60.3 582 49.7 611 43.3C640 37 669 35 698 35C727 35 756 37 785.2 44.3C814.3 51.7 843.7 64.3 872.8 72.3C902 80.3 931 83.7 945.5 85.3L960 87L960 0L945.5 0C931 0 902 0 872.8 0C843.7 0 814.3 0 785.2 0C756 0 727 0 698 0C669 0 640 0 611 0C582 0 553 0 523.8 0C494.7 0 465.3 0 436.2 0C407 0 378 0 349 0C320 0 291 0 262 0C233 0 204 0 174.8 0C145.7 0 116.3 0 87.2 0C58 0 29 0 14.5 0L0 0Z" fill="#525252"></path><path d="M0 136L14.5 148.7C29 161.3 58 186.7 87.2 191.2C116.3 195.7 145.7 179.3 174.8 173.8C204 168.3 233 173.7 262 166.5C291 159.3 320 139.7 349 139.7C378 139.7 407 159.3 436.2 162.8C465.3 166.3 494.7 153.7 523.8 139.3C553 125 582 109 611 101.8C640 94.7 669 96.3 698 99.8C727 103.3 756 108.7 785.2 126.7C814.3 144.7 843.7 175.3 872.8 187.2C902 199 931 192 945.5 188.5L960 185L960 85L945.5 83.3C931 81.7 902 78.3 872.8 70.3C843.7 62.3 814.3 49.7 785.2 42.3C756 35 727 33 698 33C669 33 640 35 611 41.3C582 47.7 553 58.3 523.8 63.7C494.7 69 465.3 69 436.2 64.5C407 60 378 51 349 54.7C320 58.3 291 74.7 262 80.2C233 85.7 204 80.3 174.8 76.7C145.7 73 116.3 71 87.2 64.7C58 58.3 29 47.7 14.5 42.3L0 37Z" fill="#404040"></path><path d="M0 201L14.5 209C29 217 58 233 87.2 239.3C116.3 245.7 145.7 242.3 174.8 237.8C204 233.3 233 227.7 262 227.7C291 227.7 320 233.3 349 234.3C378 235.3 407 231.7 436.2 225.3C465.3 219 494.7 210 523.8 201.8C553 193.7 582 186.3 611 184.5C640 182.7 669 186.3 698 187.3C727 188.3 756 186.7 785.2 198.3C814.3 210 843.7 235 872.8 251.2C902 267.3 931 274.7 945.5 278.3L960 282L960 183L945.5 186.5C931 190 902 197 872.8 185.2C843.7 173.3 814.3 142.7 785.2 124.7C756 106.7 727 101.3 698 97.8C669 94.3 640 92.7 611 99.8C582 107 553 123 523.8 137.3C494.7 151.7 465.3 164.3 436.2 160.8C407 157.3 378 137.7 349 137.7C320 137.7 291 157.3 262 164.5C233 171.7 204 166.3 174.8 171.8C145.7 177.3 116.3 193.7 87.2 189.2C58 184.7 29 159.3 14.5 146.7L0 134Z" fill="#2e2e2e"></path><path d="M0 293L14.5 301C29 309 58 325 87.2 332.2C116.3 339.3 145.7 337.7 174.8 344.8C204 352 233 368 262 370.7C291 373.3 320 362.7 349 358.2C378 353.7 407 355.3 436.2 358C465.3 360.7 494.7 364.3 523.8 361.7C553 359 582 350 611 361.7C640 373.3 669 405.7 698 406.7C727 407.7 756 377.3 785.2 376.5C814.3 375.7 843.7 404.3 872.8 415C902 425.7 931 418.3 945.5 414.7L960 411L960 280L945.5 276.3C931 272.7 902 265.3 872.8 249.2C843.7 233 814.3 208 785.2 196.3C756 184.7 727 186.3 698 185.3C669 184.3 640 180.7 611 182.5C582 184.3 553 191.7 523.8 199.8C494.7 208 465.3 217 436.2 223.3C407 229.7 378 233.3 349 232.3C320 231.3 291 225.7 262 225.7C233 225.7 204 231.3 174.8 235.8C145.7 240.3 116.3 243.7 87.2 237.3C58 231 29 215 14.5 207L0 199Z" fill="#282828"></path><path d="M0 541L14.5 541C29 541 58 541 87.2 541C116.3 541 145.7 541 174.8 541C204 541 233 541 262 541C291 541 320 541 349 541C378 541 407 541 436.2 541C465.3 541 494.7 541 523.8 541C553 541 582 541 611 541C640 541 669 541 698 541C727 541 756 541 785.2 541C814.3 541 843.7 541 872.8 541C902 541 931 541 945.5 541L960 541L960 409L945.5 412.7C931 416.3 902 423.7 872.8 413C843.7 402.3 814.3 373.7 785.2 374.5C756 375.3 727 405.7 698 404.7C669 403.7 640 371.3 611 359.7C582 348 553 357 523.8 359.7C494.7 362.3 465.3 358.7 436.2 356C407 353.3 378 351.7 349 356.2C320 360.7 291 371.3 262 368.7C233 366 204 350 174.8 342.8C145.7 335.7 116.3 337.3 87.2 330.2C58 323 29 307 14.5 299L0 291Z" fill="#232323"></path></svg>