<svg version="1" xmlns="http://www.w3.org/2000/svg" width="346.667" height="346.667" viewBox="0 0 260.000000 260.000000"><path d="M100.4 12.1c-2.9.8-10.9 8.7-33 32.4-2 2.2-8.8 9.4-15 16-6.2 6.6-13.8 14.7-16.9 18-7 7.5-10.3 12.9-12.2 20.2-2.1 7.9-1.2 18.6 2 25.7 1.4 2.9 10 15 19.3 26.7 26.4 33.7 28.4 36 32.3 37.6 5.5 2.3 54.3 2.2 59.2-.1 1.9-.9 10.8-8.9 19.7-17.9 22-22 22.6-24 11.4-35.9-7.5-8-11.8-10.2-17.7-9.2-3.5.5-5.9 2.5-17.6 14.1-14.8 14.6-17.3 16.1-26.4 15.8-9.5-.4-10.6-1.3-25.1-20.6C63.6 112.6 63 111.6 63 106v-4.4l26.3-26.4c14.4-14.5 27.4-27 28.9-27.8 2.2-1.1 9.1-1.4 36.2-1.4 22.1 0 34.3.4 35.8 1.1 1.3.6 12.4 14.4 24.8 30.6 12.4 16.2 23.7 30.8 25.2 32.4 3.4 3.6 7.8 3.9 10.8.7 1.9-2 2-3.4 2-23 0-24 .4-22.7-9.6-35.3-3.5-4.4-6.8-8.5-7.2-9-1.6-2.1-21.8-27.8-22.8-29.1-.6-.7-2.2-1.7-3.5-2.2-3.1-1.2-105.2-1.2-109.5-.1z"/><path d="M122 70.6c-3.9 1.6-33.3 30.3-35.6 34.6-2.1 4.1-1.8 11.4.7 15.1 3.2 4.7 8.9 9.8 12.6 11.3 8.1 3.4 13 1.1 27.3-13.1 6.6-6.6 13.1-12.1 15.2-13 7.4-3 16.9-1.7 22.4 3.2 4 3.7 27.3 34.9 29.1 39 3.1 7.6 3.5 7.1-25.4 36.2-14.8 14.7-27.8 27.4-29.1 28-1.6.9-12.1 1.2-36.8 1.2-31.1.1-34.7-.1-36.4-1.6-1-.9-5.4-6.3-9.6-11.9-26.1-34.2-40.5-52.4-41.9-53-3.1-1.2-5.6-.6-7.8 1.8s-2.3 3-2.2 22.8c.1 11.2.5 21.4 1 22.8.6 2 10.8 16 15 20.6.5.6 6 7.6 12 15.4 6.1 7.9 12.4 15.1 14 16.2 2.8 1.7 6.3 1.8 56.3 1.8 44 0 53.8-.2 56-1.4 1.5-.8 7.9-6.9 14.2-13.7 6.3-6.7 13.5-14.3 15.8-16.8 2.4-2.5 9.9-10.4 16.5-17.6 6.7-7.1 14.6-15.4 17.4-18.5 12.2-12.7 15.9-28.3 10.3-43.2-1.1-2.9-4.8-9-8.2-13.5C204 96.1 186 73.9 183.1 71.9c-3.4-2.4-3.9-2.4-30.5-2.6-22.5-.2-27.7 0-30.6 1.3z"/></svg>