<svg version="1" xmlns="http://www.w3.org/2000/svg" width="346.667" height="346.667" viewBox="0 0 260.000000 260.000000"><path d="M158.7 51.2C156.8 52.8 95 181.1 95 183.7c0 1 .7 2.9 1.6 4.1 1.9 2.8 8.3 3.1 10.6.4C110 185.1 170 59.1 170 56.5c0-5.1-7-8.5-11.3-5.3zM172.1 90.6c-2.5 3.1-2.6 5.2-.7 8 .8 1.1 15 8.4 32.1 16.4 16.9 8 30.3 14.6 29.8 14.7-.4.2-16.5 6.7-35.7 14.6-36.7 14.9-39.7 16.6-38.1 21.6 1 3.1 3.3 5.1 6.1 5.1 2.7 0 76.8-29.9 82-33.1 5.9-3.6 7.1-10.5 2.5-14.7-3.3-3.2-70.6-35.2-73.8-35.2-1.2 0-3.1 1.2-4.2 2.6zM54.3 105.4c-21.6 9-40 16.9-40.8 17.6-2.1 1.7-4.5 6.4-4.5 8.7 0 4.6 4.5 7.3 39.5 23.8 19.3 9.1 36 16.5 37.2 16.5 5.1 0 8.2-7.2 4.8-11-.8-.9-15-7.9-31.5-15.5C32.3 133 26.6 130 30 130c2.1 0 69.3-27.9 71.1-29.6 4.2-3.8.9-11.5-4.8-11.3-1.6 0-20.4 7.4-42 16.3z"/></svg>